REM DIRINDEX 1\2,1\3,1\4,1\5\6,1\5\7,1\8
REM DIRNAME folder01,folder02,folder03,folder04,folder05,folder06,folder07,folder08
TITLE ""
FILE "050 Åy050ÅzUnit3 (0565 ingredient_0576 tedious).mp3" MP3
  TRACK 01 AUDIO
    TITLE "0:"
    INDEX 01 00:00:00
  TRACK 02 AUDIO
    TITLE "2:cjc115_1924"
    INDEX 01 00:00:07
  TRACK 03 AUDIO
    TITLE "0:"
    INDEX 01 00:01:42
  TRACK 04 AUDIO
    TITLE "3:cjc115_1925"
    INDEX 01 00:01:54
  TRACK 05 AUDIO
    TITLE "0:"
    INDEX 01 00:03:51
  TRACK 06 AUDIO
    TITLE "4:cjc115_1926"
    INDEX 01 00:03:66
  TRACK 07 AUDIO
    TITLE "0:"
    INDEX 01 00:08:58
  TRACK 08 AUDIO
    TITLE "2:cjc115_1927"
    INDEX 01 00:09:65
  TRACK 09 AUDIO
    TITLE "0:"
    INDEX 01 00:11:25
  TRACK 10 AUDIO
    TITLE "3:cjc115_1928"
    INDEX 01 00:11:39
  TRACK 11 AUDIO
    TITLE "0:"
    INDEX 01 00:13:28
  TRACK 12 AUDIO
    TITLE "4:cjc115_1929"
    INDEX 01 00:13:37
  TRACK 13 AUDIO
    TITLE "0:"
    INDEX 01 00:17:43
  TRACK 14 AUDIO
    TITLE "2:cjc115_1930"
    INDEX 01 00:18:52
  TRACK 15 AUDIO
    TITLE "0:"
    INDEX 01 00:20:06
  TRACK 16 AUDIO
    TITLE "3:cjc115_1931"
    INDEX 01 00:20:20
  TRACK 17 AUDIO
    TITLE "0:"
    INDEX 01 00:23:03
  TRACK 18 AUDIO
    TITLE "4:cjc115_1932"
    INDEX 01 00:23:22
  TRACK 19 AUDIO
    TITLE "0:"
    INDEX 01 00:27:36
  TRACK 20 AUDIO
    TITLE "2:cjc115_1933"
    INDEX 01 00:28:47
  TRACK 21 AUDIO
    TITLE "0:"
    INDEX 01 00:29:66
  TRACK 22 AUDIO
    TITLE "3:cjc115_1934"
    INDEX 01 00:30:03
  TRACK 23 AUDIO
    TITLE "0:"
    INDEX 01 00:32:19
  TRACK 24 AUDIO
    TITLE "4:cjc115_1935"
    INDEX 01 00:32:27
  TRACK 25 AUDIO
    TITLE "0:"
    INDEX 01 00:35:49
  TRACK 26 AUDIO
    TITLE "2:cjc115_1936"
    INDEX 01 00:36:60
  TRACK 27 AUDIO
    TITLE "0:"
    INDEX 01 00:38:04
  TRACK 28 AUDIO
    TITLE "3:cjc115_1937"
    INDEX 01 00:38:08
  TRACK 29 AUDIO
    TITLE "0:"
    INDEX 01 00:40:34
  TRACK 30 AUDIO
    TITLE "4:cjc115_1938"
    INDEX 01 00:40:42
  TRACK 31 AUDIO
    TITLE "0:"
    INDEX 01 00:44:01
  TRACK 32 AUDIO
    TITLE "2:cjc115_1939"
    INDEX 01 00:45:10
  TRACK 33 AUDIO
    TITLE "0:"
    INDEX 01 00:46:33
  TRACK 34 AUDIO
    TITLE "3:cjc115_1940"
    INDEX 01 00:46:41
  TRACK 35 AUDIO
    TITLE "0:"
    INDEX 01 00:48:53
  TRACK 36 AUDIO
    TITLE "4:cjc115_1941"
    INDEX 01 00:48:57
  TRACK 37 AUDIO
    TITLE "0:"
    INDEX 01 00:51:42
  TRACK 38 AUDIO
    TITLE "2:cjc115_1942"
    INDEX 01 00:52:53
  TRACK 39 AUDIO
    TITLE "0:"
    INDEX 01 00:53:68
  TRACK 40 AUDIO
    TITLE "3:cjc115_1943"
    INDEX 01 00:54:03
  TRACK 41 AUDIO
    TITLE "0:"
    INDEX 01 00:54:72
  TRACK 42 AUDIO
    TITLE "4:cjc115_1944"
    INDEX 01 00:55:10
  TRACK 43 AUDIO
    TITLE "0:"
    INDEX 01 00:58:36
  TRACK 44 AUDIO
    TITLE "2:cjc115_1945"
    INDEX 01 00:59:43
  TRACK 45 AUDIO
    TITLE "0:"
    INDEX 01 01:00:57
  TRACK 46 AUDIO
    TITLE "3:cjc115_1946"
    INDEX 01 01:00:68
  TRACK 47 AUDIO
    TITLE "0:"
    INDEX 01 01:03:33
  TRACK 48 AUDIO
    TITLE "4:cjc115_1947"
    INDEX 01 01:03:43
  TRACK 49 AUDIO
    TITLE "0:"
    INDEX 01 01:07:06
  TRACK 50 AUDIO
    TITLE "2:cjc115_1948"
    INDEX 01 01:08:15
  TRACK 51 AUDIO
    TITLE "0:"
    INDEX 01 01:09:30
  TRACK 52 AUDIO
    TITLE "3:cjc115_1949"
    INDEX 01 01:09:40
  TRACK 53 AUDIO
    TITLE "0:"
    INDEX 01 01:11:52
  TRACK 54 AUDIO
    TITLE "4:cjc115_1950"
    INDEX 01 01:11:54
  TRACK 55 AUDIO
    TITLE "0:"
    INDEX 01 01:17:33
  TRACK 56 AUDIO
    TITLE "2:cjc115_1951"
    INDEX 01 01:18:43
  TRACK 57 AUDIO
    TITLE "0:"
    INDEX 01 01:19:66
  TRACK 58 AUDIO
    TITLE "3:cjc115_1952"
    INDEX 01 01:20:00
  TRACK 59 AUDIO
    TITLE "0:"
    INDEX 01 01:21:18
  TRACK 60 AUDIO
    TITLE "4:cjc115_1953"
    INDEX 01 01:21:27
  TRACK 61 AUDIO
    TITLE "0:"
    INDEX 01 01:24:36
  TRACK 62 AUDIO
    TITLE "2:cjc115_1954"
    INDEX 01 01:25:47
  TRACK 63 AUDIO
    TITLE "0:"
    INDEX 01 01:26:72
  TRACK 64 AUDIO
    TITLE "3:cjc115_1955"
    INDEX 01 01:27:08
  TRACK 65 AUDIO
    TITLE "0:"
    INDEX 01 01:29:09
  TRACK 66 AUDIO
    TITLE "4:cjc115_1956"
    INDEX 01 01:29:17
  TRACK 67 AUDIO
    TITLE "0:"
    INDEX 01 01:33:07
  TRACK 68 AUDIO
    TITLE "2:cjc115_1957"
    INDEX 01 01:34:12
  TRACK 69 AUDIO
    TITLE "0:"
    INDEX 01 01:35:35
  TRACK 70 AUDIO
    TITLE "3:cjc115_1958"
    INDEX 01 01:35:45
  TRACK 71 AUDIO
    TITLE "0:"
    INDEX 01 01:37:58
  TRACK 72 AUDIO
    TITLE "4:cjc115_1959"
    INDEX 01 01:37:66
  TRACK 73 AUDIO
    TITLE "0:"
    INDEX 01 01:42:67
